<?xml version="1.0" encoding="iso-8859-1"?>
<!-- Generator: Adobe Illustrator 19.0.0, SVG Export Plug-In . SVG Version: 6.00 Build 0)  -->
<svg version="1.1" id="Capa_1" xmlns="http://www.w3.org/2000/svg" xmlns:xlink="http://www.w3.org/1999/xlink" x="0px" y="0px"
	 viewBox="0 0 512 512" style="enable-background:new 0 0 512 512;" xml:space="preserve">
<g>
	<g>
		<path d="M125,126c-5.52,0-10,4.48-10,10s4.48,10,10,10s10-4.48,10-10S130.52,126,125,126z"/>
	</g>
</g>
<g>
	<g>
		<path d="M290,466h-10v-10c0-27.57-22.43-50-50-50H70c-27.57,0-50,22.43-50,50v10H10c-5.523,0-10,4.478-10,10
			c0,5.522,4.477,10,10,10c13.4,0,260.384,0,280,0c5.523,0,10-4.478,10-10C300,470.478,295.523,466,290,466z M260,466H40v-10
			c0-16.542,13.458-30,30-30h160c16.542,0,30,13.458,30,30V466z"/>
	</g>
</g>
<g>
	<g>
		<path d="M138.854,175.433c-0.215-5.518-4.837-9.855-10.381-9.605c-5.519,0.214-9.819,4.86-9.605,10.38
			c0.752,19.41-0.739,38.885-4.433,57.883c-1.054,5.422,2.486,10.671,7.907,11.726c5.433,1.053,10.672-2.495,11.725-7.907
			C138.055,217.401,139.666,196.382,138.854,175.433z"/>
	</g>
</g>
<g>
	<g>
		<path d="M472,146c-10.581,0-244.563,0-248.184,0c2.675-13.907,6.744-27.502,12.142-40.596C249.656,102.633,260,90.502,260,76V36
			c0-5.522-4.477-10-10-10H50c-5.523,0-10,4.478-10,10v40c0,14.152,9.853,26.038,23.056,29.18c21.35,51.672,21.35,109.968,0,161.64
			C49.853,269.962,40,281.848,40,296v40c0,5.522,4.477,10,10,10h200c5.523,0,10-4.478,10-10v-40
			c0-14.502-10.344-26.633-24.042-29.404c-5.398-13.094-9.467-26.688-12.142-40.596c3.621,0,237.603,0,248.184,0
			c22.097,0,40-17.898,40-40C512,163.944,494.056,146,472,146z M70,86c-5.514,0-10-4.486-10-10V46h180v30c0,5.514-4.486,10-10,10
			h-0.69c-0.023,0-0.047,0-0.07,0H70z M202.132,217.352c2.271,16.635,6.344,32.938,12.129,48.647H84.82
			c18.969-51.569,18.969-108.531,0-160.1h129.441c-5.785,15.711-9.858,32.113-12.129,48.747
			C199.29,175.451,199.29,196.548,202.132,217.352z M230.001,286c5.514,0,10,4.486,10,10v30H240H60v-30
			c0-5.503,4.469-9.981,9.969-9.998c0.009,0,0.017,0.001,0.026,0.001c0.014,0,0.027-0.003,0.041-0.003
			C80.377,286,219.918,286,230.001,286z M260,206h-39.045c-1.263-13.303-1.263-26.696,0-40H260V206z M472,206H280v-40h192
			c11.028,0,20,8.972,20,20C492,197.045,483.046,206,472,206z"/>
	</g>
</g>
<g>
</g>
<g>
</g>
<g>
</g>
<g>
</g>
<g>
</g>
<g>
</g>
<g>
</g>
<g>
</g>
<g>
</g>
<g>
</g>
<g>
</g>
<g>
</g>
<g>
</g>
<g>
</g>
<g>
</g>
</svg>
