<svg height="512pt" viewBox="0 0 512.001 512" width="512pt" xmlns="http://www.w3.org/2000/svg"><path d="m0 428.441406 63.585938 63.585938 238.269531-237.699219 42.402343 42.402344-21.195312 21.195312 21.195312 21.195313 148.363282-148.367188-21.191406-21.195312-21.195313 21.195312-148.367187-148.363281 21.195312-21.195313-21.195312-21.195312-148.363282 148.367188 21.195313 21.195312 21.195312-21.195312 42.375 42.375zm42.414062.027344 153.390626-153.019531 21.195312 21.191406-153.386719 153.023437zm195.808594-152.996094-21.199218-21.195312 42.441406-42.339844 21.195312 21.195312zm42.449219-211.886718 148.367187 148.367187-63.585937 63.585937-148.367187-148.367187zm0 0"/><path d="m481.027344 429.222656-38.753906-38.753906h-163.285157l-38.753906 38.753906v52.171875h-29.976563v29.972657h301.742188v-29.972657h-30.972656zm-210.820313 12.417969 21.195313-21.195313h138.457031l21.191406 21.195313v39.753906h-180.84375zm0 0"/></svg>